<?xml version="1.0" encoding="UTF-8" standalone="no"?>
<!-- Created with Inkscape (http://www.inkscape.org/) -->

<svg
   width="210mm"
   height="297mm"
   viewBox="0 0 210 297"
   version="1.1"
   id="svg1"
   inkscape:version="1.4.2 (f4327f4, 2025-05-13)"
   sodipodi:docname="lr-service-logo-invers.svg"
   inkscape:export-filename="lr-service-logo-invers-silueta.png"
   inkscape:export-xdpi="145.14285"
   inkscape:export-ydpi="145.14285"
   xmlns:inkscape="http://www.inkscape.org/namespaces/inkscape"
   xmlns:sodipodi="http://sodipodi.sourceforge.net/DTD/sodipodi-0.dtd"
   xmlns="http://www.w3.org/2000/svg"
   xmlns:svg="http://www.w3.org/2000/svg">
  <sodipodi:namedview
     id="namedview1"
     pagecolor="#ffffff"
     bordercolor="#666666"
     borderopacity="1.0"
     inkscape:showpageshadow="2"
     inkscape:pageopacity="0.0"
     inkscape:pagecheckerboard="0"
     inkscape:deskcolor="#d1d1d1"
     inkscape:document-units="mm"
     inkscape:zoom="1.0544998"
     inkscape:cx="277.3827"
     inkscape:cy="655.76116"
     inkscape:window-width="1920"
     inkscape:window-height="1017"
     inkscape:window-x="-8"
     inkscape:window-y="-8"
     inkscape:window-maximized="1"
     inkscape:current-layer="g3"
     showgrid="false"
     inkscape:export-bgcolor="#000000ff">
    <inkscape:page
       x="0"
       y="0"
       width="210"
       height="297"
       id="page2"
       margin="0"
       bleed="0" />
  </sodipodi:namedview>
  <defs
     id="defs1">
    <filter
       inkscape:collect="always"
       style="color-interpolation-filters:sRGB"
       id="filter50"
       x="-2.444824e-05"
       y="-3.8642589e-05"
       width="1.0000489"
       height="1.0000772">
      <feGaussianBlur
         inkscape:collect="always"
         stdDeviation="0.0014839442"
         id="feGaussianBlur50" />
    </filter>
  </defs>
  <g
     inkscape:label="Strat 1"
     inkscape:groupmode="layer"
     id="layer1">
    <g
       id="g3"
       transform="matrix(0.26458333,0,0,0.26458333,15.42843,43.783864)"
       style="fill:#ffffff;fill-opacity:1">
      <g
         id="g1">
        <path
           style="fill:#ffffff;fill-opacity:1;stroke:none;stroke-width:0.504486;stroke-dasharray:none;stroke-opacity:1"
           d="m 72.296079,374.39574 c 1.90998,-0.0328 6.573378,-6.74355 6.573378,-7.38683 0,-0.75748 -46.471664,0.12252 -46.471664,-0.28001 0,-2.05761 34.766226,-34.81708 34.208454,-39.29938 -1.727781,-2.65157 -10.566023,-3.42986 -10.564324,-8.87545 0.0071,-16.28119 268.482597,-23.94454 285.377737,-18.74453 3.22839,0.99365 53.27547,27.60646 93.81854,54.15447 80.64165,3.36296 127.6446,8.23865 149.27574,15.84752 10.44702,2.17561 14.85309,10.86371 20.71171,19.0691 h 23.9661 v 6.75647 H 191.05736 c -22.72043,-22.69683 -68.79589,-37.17971 -103.015869,-7.2e-4 l -60.658168,7.2e-4 c 0.04481,-7.09366 0.107017,-14.18318 0.198709,-21.22064 18.424302,0.35493 26.145258,0.29802 44.714047,-0.0208 z m 446.831231,-5.5205 c -2.01277,-0.0399 -0.92356,5.87802 0.99691,6.84797 9.11691,0.5 18.22431,1.18474 27.3345,1.81045 l 11.73648,6.90188 c 11.50176,0.40568 23.00946,0.45219 34.51584,0.53343 -5.17309,-20.68849 -55.76801,-15.72124 -74.58373,-16.09373 z m -60.34794,9.37534 c 5.96183,-1.97611 8.5769,-7.46092 8.5769,-7.70132 -85.46381,-3.27851 -171.40891,-4.39879 -257.02092,-6.44733 -6.79882,-3.237 -27.80837,-9.84659 -20.3823,-9.74639 73.07223,0.98588 149.87489,1.44921 222.98241,1.1963 -3.04827,-1.91115 -71.00986,-43.75345 -73.6898,-44.51842 -41.06814,-11.72288 -219.41083,7.25937 -223.10308,10.7175 -8.41822,8.88392 -16.776218,17.83504 -25.149734,26.76853 25.199894,0.24888 50.398784,0.59013 75.597184,0.97368 13.19745,7.57993 26.40388,15.14131 39.53935,22.84693 143.34056,3.99046 13.59316,0.33751 199.46845,5.37278 11.43447,0.30977 25.10081,0.68335 30.36963,0.83017 17.72814,0.49404 22.81191,-0.29243 22.81191,-0.29243 z"
           id="path1"
           sodipodi:nodetypes="sssssscscccccccssscsssssssssssssssss" />
        <g
           id="g48"
           transform="matrix(0.88288725,0,0,0.89665664,648.81021,354.77967)"
           style="fill:#ffffff;fill-opacity:1;filter:url(#filter50)">
          <g
             id="g47"
             style="fill:#ffffff;fill-opacity:1" />
        </g>
        <path
           style="fill:#ffffff;fill-opacity:1;stroke:none;stroke-width:0.993302;stroke-linejoin:miter;stroke-dasharray:none;stroke-opacity:1"
           d="m 27.555797,410.68794 13.252609,0.0255 -0.06918,62.44891 c 0,0 -0.07164,2.42808 3.325727,2.61921 3.442452,0.19367 40.897236,0.11217 40.897236,0.11217 l -0.02166,17.06524 -47.630744,0.11557 c 0,0 -9.724626,-2.14165 -9.727017,-16.96786 -0.002,-15.99464 -0.02695,-65.41896 -0.02695,-65.41896 z"
           id="path21-3-2-8-4-8"
           sodipodi:nodetypes="cccscccscc" />
        <path
           style="fill:#ffffff;fill-opacity:1;stroke:none;stroke-width:0.993306;stroke-dasharray:none;stroke-opacity:1"
           d="m 99.564529,410.45781 48.074341,0.0772 c 0,0 18.61359,-2.7936 20.07761,25.36233 1.38085,26.55634 -14.0891,31.01091 -14.0891,31.01091 l 16.68402,26.09508 -17.29916,0.0124 -15.24456,-24.11953 -24.63819,-0.2632 -0.12457,24.39629 -13.463486,0.0682 0.0074,-41.72553 49.223726,0.2368 c 0,0 9.56081,-14.25382 -0.88821,-22.68826 l -48.330448,0.0239 z"
           id="path22-1-4-8"
           sodipodi:nodetypes="ccscccccccccccc" />
        <g
           id="g67"
           transform="matrix(1.0495542,0,0,1.2020921,-3.0634416,-96.818036)"
           style="fill:#ffffff;fill-opacity:1">
          <path
             d="m 219.12184,490.94386 c -8.4083,0 -15.11475,-3.09625 -18.70161,-6.40902 l 3.60908,-9.65313 c 1.9686,1.68799 4.28717,3.08584 6.9557,4.19356 6.24277,2.42827 11.50642,1.52479 13.25517,0.87037 4.8208,-1.93759 4.47438,-6.85145 2.36231,-8.70361 -2.4332,-2.07782 -5.87468,-2.90201 -9.05552,-3.71883 -10.86053,-3.04545 -16.04875,-7.01134 -16.20806,-16.61599 0,-18.71822 23.68677,-21.20507 35.3034,-12.34334 l -3.28099,9.73224 c -7.72228,-5.32081 -14.86986,-4.7694 -17.78294,-3.48145 -4.47774,1.97976 -4.4823,6.84342 -2.23107,8.94099 3.76658,3.30312 12.40737,3.30878 19.9484,8.22889 5.9035,4.35013 6.88574,13.64577 3.14974,20.33481 -4.11207,7.36236 -12.23579,8.62451 -17.32361,8.62451 z m 45.34331,-0.94949 v -55.38669 h 34.71279 v 10.28611 h -24.14802 v 34.81449 h 25.0011 v 10.28609 z m 9.77732,-23.10416 v -9.96961 h 22.11385 v 9.96961 z m 52.82386,23.10416 v -55.38669 h 19.62029 c 21.86446,0 22.68656,21.67028 17.78294,30.77918 -4.96203,9.59088 -16.65895,9.27831 -26.96756,9.17837 l 0.1947,15.42914 z m 29.20076,0 -9.81156,-15.53114 11.00615,-2.46846 11.01806,18.05788 z m -18.74733,-25.53598 c 1.1e-4,0.055 6.73591,0.0206 8.97874,0.0402 7.01032,-1.66303 9.63735,-6.78672 9.63735,-9.79342 0,-4.27733 -1.5285,-9.61347 -9.68358,-9.59128 l -8.9713,0.0244 z m 70.12766,25.53598 -19.81715,-55.38669 h 11.48344 l 17.32359,49.05681 h -6.75884 l 17.58608,-49.05681 h 10.56479 l -19.88278,55.38669 z m 53.74259,0 v -55.38669 h 10.6304 v 55.38669 z m 44.29331,-7.12115 c -8.45747,-9.79803 -10.57566,-28.89231 0,-41.1444 2.81851,-3.20246 8.62092,-8.07061 17.84856,-8.07061 10.56966,0 16.32516,6.02582 18.89846,9.81136 l -6.82443,7.5959 c -2.30511,-3.16552 -6.0374,-6.48817 -11.54906,-6.48817 -8.82158,0 -14.69883,7.45058 -14.69883,17.72371 0,12.11735 7.46811,17.72376 14.69883,17.72376 5.1461,0 8.75284,-2.63367 11.54906,-6.56726 l 6.82443,7.59588 c -2.18731,3.21769 -4.89959,5.67052 -8.13684,7.35851 -6.33446,3.34818 -19.50729,5.00716 -28.61018,-5.53868 z m 61.87949,7.12115 v -55.38669 h 34.71281 v 10.28611 h -24.14806 v 34.81449 h 25.0011 v 10.28609 z m 9.77733,-23.10416 v -9.96961 h 22.11382 v 9.96961 z"
             id="text2"
             style="font-weight:bold;font-size:86.3773px;line-height:1.25;font-family:Montserrat;-inkscape-font-specification:'Montserrat Bold';letter-spacing:0px;word-spacing:0px;fill:#ffffff;fill-opacity:1;stroke:none;stroke-width:0.884133;stroke-dasharray:none;stroke-opacity:1"
             aria-label="S E R V I C E"
             sodipodi:nodetypes="sccccccsccscsssccccccccccccccccscccccccccscsscsccccccccccccccscsccssscccscccccccccccccc" />
        </g>
      </g>
    </g>
  </g>
</svg>
